{"title":"River.Monsters.S03E09.The.Lost.Reels.Amazonian.Giant.HDTV.XviD-t","uid":6429359,"size":366456832,"categoryP":"video","categoryS":"tv_shows","magnet":"?xt=urn:btih:bcfcb80313a8be6d579f8569bc755e9ac0b1ab0d&amp;dn=River.Monsters.S03E09.The.Lost.Reels.Amazonian.Giant.HDTV.XviD-t&amp;tr=udp%3A%2F%2Ftracker.openbittorrent.com%3A80&amp;tr=udp%3A%2F%2Fopen.demonii.com%3A1337&amp;tr=udp%3A%2F%2Ftracker.coppersurfer.tk%3A6969&amp;tr=udp%3A%2F%2Fexodus.desync.com%3A6969","seeders":1,"leechers":1,"uploader":"trialNerror","files":1,"time":1306590101,"description":"Format                           : AVI\nFormat/Info                      : Audio Video Interleave\nFile size                        : 349 MiB\nDuration                         : 42mn 7s\nOverall bit rate                 : 1 160 Kbps\nWriting application              : VirtualDubMod 1.5.10.2 (build 2542/release)\nWriting library                  : VirtualDubMod build 2542/release\n\nVideo\nID                               : 0\nFormat                           : MPEG-4 Visual\nFormat profile                   : Advanced Simple@L5\nFormat settings, BVOP            : Yes\nFormat settings, QPel            : No\nFormat settings, GMC             : No warppoints\nFormat settings, Matrix          : Default (H.263)\nMuxing mode                      : Packed bitstream\nCodec ID                         : XVID\nCodec ID/Hint                    : XviD\nDuration                         : 42mn 7s\nBit rate                         : 1 026 Kbps\nWidth                            : 624 pixels\nHeight                           : 396 pixels\nDisplay aspect ratio             : 1.576\nFrame rate                       : 29.970 fps\nColor space                      : YUV\nChroma subsampling               : 4:2:0\nBit depth                        : 8 bits\nScan type                        : Progressive\nBits/(Pixel*Frame)               : 0.139\nStream size                      : 309 MiB (88%)\nWriting library                  : XviD 58\n\nAudio\nID                               : 1\nFormat                           : MPEG Audio\nFormat version                   : Version 1\nFormat profile                   : Layer 3\nMode                             : Joint stereo\nMode extension                   : MS Stereo\nCodec ID                         : 55\nCodec ID/Hint                    : MP3\nDuration                         : 42mn 7s\nBit rate mode                    : Variable\nBit rate                         : 120 Kbps\nChannel(s)                       : 2 channels\nSampling rate                    : 48.0 KHz\nStream size                      : 36.2 MiB (10%)\nAlignment                        : Aligned on interleaves\nInterleave, duration             : 24 ms (0.72 video frame)\nInterleave, preload duration     : 537 ms","torrent":{"xt":"urn:btih:bcfcb80313a8be6d579f8569bc755e9ac0b1ab0d","amp;dn":"River.Monsters.S03E09.The.Lost.Reels.Amazonian.Giant.HDTV.XviD-t","amp;tr":["udp%3A%2F%2Ftracker.openbittorrent.com%3A80","udp%3A%2F%2Fopen.demonii.com%3A1337","udp%3A%2F%2Ftracker.coppersurfer.tk%3A6969","udp%3A%2F%2Fexodus.desync.com%3A6969"],"infoHash":"bcfcb80313a8be6d579f8569bc755e9ac0b1ab0d","infoHashBuffer":{"type":"Buffer","data":[188,252,184,3,19,168,190,109,87,159,133,105,188,117,94,154,192,177,171,13]},"announce":[],"urlList":[]}}